<mxfile host="app.diagrams.net" modified="2023-04-22T08:40:34.041Z" agent="Mozilla/5.0 (Windows NT 10.0; Win64; x64; rv:109.0) Gecko/20100101 Firefox/112.0" version="21.2.1" etag="xbbcUV5KnqZ98zUtupRD" type="github">
  <diagram name="Page-1" id="GyhTvYxpTi9NaX24lL62">
    <mxGraphModel>
      <root>
        <mxCell id="0" />
        <mxCell id="1" parent="0" />
        <mxCell id="2" value="User Input" style="whiteSpace=wrap;strokeWidth=2;" vertex="1" parent="1">
          <mxGeometry x="115" width="89" height="34" as="geometry" />
        </mxCell>
        <mxCell id="3" value="Chatbot" style="rounded=1;absoluteArcSize=1;arcSize=14;whiteSpace=wrap;strokeWidth=2;" vertex="1" parent="1">
          <mxGeometry x="124" y="103" width="72" height="34" as="geometry" />
        </mxCell>
        <mxCell id="4" value="Intent Detected?" style="rhombus;strokeWidth=2;whiteSpace=wrap;" vertex="1" parent="1">
          <mxGeometry y="206" width="169" height="169" as="geometry" />
        </mxCell>
        <mxCell id="5" value="Execute Action" style="whiteSpace=wrap;strokeWidth=2;" vertex="1" parent="1">
          <mxGeometry x="3" y="444" width="122" height="34" as="geometry" />
        </mxCell>
        <mxCell id="6" value="Provide Clarification" style="whiteSpace=wrap;strokeWidth=2;" vertex="1" parent="1">
          <mxGeometry x="175" y="444" width="161" height="34" as="geometry" />
        </mxCell>
        <mxCell id="7" value="Display Result" style="whiteSpace=wrap;strokeWidth=2;" vertex="1" parent="1">
          <mxGeometry x="7" y="528" width="114" height="34" as="geometry" />
        </mxCell>
        <mxCell id="8" value="Trigger" style="curved=1;startArrow=none;endArrow=block;exitX=0.504588014624092;exitY=1;entryX=0.49872685141033596;entryY=0;" edge="1" parent="1" source="2" target="3">
          <mxGeometry relative="1" as="geometry">
            <Array as="points" />
          </mxGeometry>
        </mxCell>
        <mxCell id="9" value="Process Input" style="curved=1;startArrow=none;endArrow=block;exitX=0.15216311082613623;exitY=1;entryX=0.49891518135747964;entryY=0;" edge="1" parent="1" source="3" target="4">
          <mxGeometry relative="1" as="geometry">
            <Array as="points">
              <mxPoint x="84" y="172" />
            </Array>
          </mxGeometry>
        </mxCell>
        <mxCell id="10" value="Yes" style="curved=1;startArrow=none;endArrow=block;exitX=0.41339486344880677;exitY=0.9978303627149593;entryX=0.4995901584625244;entryY=-0.010784373563878676;" edge="1" parent="1" source="4" target="5">
          <mxGeometry relative="1" as="geometry">
            <Array as="points">
              <mxPoint x="64" y="409" />
            </Array>
          </mxGeometry>
        </mxCell>
        <mxCell id="11" value="No" style="curved=1;startArrow=none;endArrow=block;exitX=0.9018474580149108;exitY=0.9978303627149593;entryX=0.34729240961862123;entryY=-0.010784373563878676;" edge="1" parent="1" source="4" target="6">
          <mxGeometry relative="1" as="geometry">
            <Array as="points">
              <mxPoint x="180" y="409" />
            </Array>
          </mxGeometry>
        </mxCell>
        <mxCell id="12" value="" style="curved=1;startArrow=none;endArrow=block;exitX=0.4995901584625244;exitY=0.9892156264361214;entryX=0.499561397652877;entryY=-0.010784373563878676;" edge="1" parent="1" source="5" target="7">
          <mxGeometry relative="1" as="geometry">
            <Array as="points" />
          </mxGeometry>
        </mxCell>
        <mxCell id="13" value="" style="curved=1;startArrow=none;endArrow=block;exitX=0.5324167353550646;exitY=-0.010784373563878676;entryX=0.9981481830279032;entryY=0.9922024488529293;" edge="1" parent="1" source="6" target="3">
          <mxGeometry relative="1" as="geometry">
            <Array as="points">
              <mxPoint x="271" y="409" />
              <mxPoint x="271" y="172" />
            </Array>
          </mxGeometry>
        </mxCell>
      </root>
    </mxGraphModel>
  </diagram>
</mxfile>
